<?xml version="1.0" encoding="utf-8"?>
<!-- Generator: Adobe Illustrator 25.0.0, SVG Export Plug-In . SVG Version: 6.00 Build 0)  -->
<svg version="1.1" id="Layer_1" xmlns="http://www.w3.org/2000/svg" xmlns:xlink="http://www.w3.org/1999/xlink" x="0px" y="0px"
	 viewBox="0 0 727.2 150.6" style="enable-background:new 0 0 727.2 150.6;" xml:space="preserve">
<style type="text/css">
	.st0{fill:#00263A;}
	.st1{fill:#EC7700;}
</style>
<path class="st0" d="M201.1,77.5c-0.1,0.3-0.3,0.8-0.6,1.5c-0.3,0.6-0.6,1.4-1,2.2c-0.4,0.8-0.7,1.7-1.2,2.6
	c-0.4,0.9-0.8,1.8-1.2,2.8c-0.1,0.3-0.3,0.6-0.4,0.8c-0.1,0.2-0.3,0.3-0.6,0.4c-0.3,0.1-0.7,0.1-1.1,0.1c-0.5,0-1.2,0-2,0.1
	l-5.2,0.1l-1,11.5H206v1.5c-0.1,0-0.3,0.4-0.6,1s-0.8,1.3-1.3,2.2c-0.5,0.8-1,1.7-1.6,2.6c-0.5,0.9-1,1.6-1.4,2.1
	c-0.2,0.4-0.5,0.8-0.9,1.1c-0.3,0.3-0.7,0.5-1.1,0.6c-0.4,0.1-0.8,0.2-1.3,0.2c-0.5,0-1,0-1.5,0c-2.2,0-4.6,0-7-0.1
	c-2.4-0.1-4.9-0.2-7.3-0.4c-2.4-0.1-4.8-0.3-7.1-0.5c-2.3-0.2-4.5-0.4-6.4-0.6c-0.2,0-0.3-0.1-0.5-0.3c-0.1-0.2-0.2-0.4-0.2-0.6
	c-0.1,0,0-0.2,0.2-0.6c0.2-0.4,0.6-1,1-1.6c0.4-0.7,0.9-1.4,1.4-2.3c0.5-0.9,1-1.7,1.5-2.6l0.6-8.4c0.1-1.4,0.2-2.5,0.2-3.2
	c0.1-0.7,0.1-1.1,0.1-1.1c-1.5,0-2.6-0.1-3.4-0.2c-0.7-0.1-1.1-0.4-1.1-0.8c0-0.2,0.2-0.6,0.5-1.1c0.4-0.5,0.8-1.2,1.3-1.9
	c0.5-0.7,1.1-1.5,1.7-2.2c0.6-0.8,1.1-1.5,1.6-2.1l0.9-12.7h-0.1c-0.5,0-1,0-1.5,0.1c-0.4,0-0.9,0-1.2,0c-1.2,0-2.1-0.1-2.6-0.2
	c-0.5-0.1-0.8-0.4-0.8-0.8c0-0.2,0.1-0.5,0.4-1.1c0.3-0.5,0.7-1.2,1.1-1.9c0.4-0.7,0.9-1.5,1.4-2.2c0.5-0.8,0.9-1.5,1.3-2.2l2.2-3.8
	h15.7l18.5-1.3c0,0,0.1,0,0.2,0c0.1,0,0.2,0,0.4,0.1c0.1,0.1,0.2,0.2,0.4,0.3c0.1,0.1,0.2,0.4,0.2,0.6l-0.6,1.9
	c-0.2,0.5-0.4,1.1-0.6,1.7c-0.2,0.6-0.5,1.2-0.8,1.9l-1.6,4.3c-0.2,0.4-0.4,0.7-0.6,1s-0.7,0.3-1.4,0.4c-1.9,0-4,0.1-6.4,0.2
	c-2.3,0.1-5,0.2-8,0.3c-0.1,0.3-0.1,0.6-0.1,0.8c0,0.2,0,0.6-0.1,1.2l-0.2,1.7c-0.1,0.8-0.1,1.7-0.2,2.6c-0.1,0.9-0.2,2.1-0.4,3.4
	c1.3,0,2.5-0.1,3.7-0.1c1.2,0,2.3-0.1,3.3-0.1c1,0,1.9-0.1,2.6-0.1c0.7,0,1.3,0,1.6,0c0.2,0,0.4,0.1,0.7,0.2
	c0.2,0.1,0.4,0.4,0.4,0.9C201.3,77.1,201.2,77.3,201.1,77.5z"/>
<path class="st0" d="M213.6,76.9c0.3-3.4,0.5-6.8,0.7-10.2c0.2-3.3,0.4-6.8,0.6-10.3c0.1-0.8,0.1-1.4,0.2-1.7
	c0.1-0.3,0.4-0.5,0.8-0.6c2.3-0.4,4.7-0.9,7-1.3c2.3-0.4,4.7-1,7-1.7c0.1,0,0.2,0,0.3,0c0.3,0,0.4,0.1,0.4,0.4l-4.9,53.5v0.6
	c0,0.2-0.1,0.4-0.3,0.5s-0.6,0.3-1.2,0.5l-9.8,3.6c-0.3,0.1-0.6,0.3-1.1,0.4c-0.4,0.1-0.9,0.2-1.3,0.2c-0.4,0-0.7-0.1-0.9-0.3
	c-0.3-0.2-0.4-0.5-0.4-0.9v-0.2c0.2-2.5,0.4-5,0.6-7.4c0.2-2.4,0.4-4.9,0.6-7.5c0.2-2.6,0.4-5.3,0.7-8.2
	C213,83.5,213.3,80.4,213.6,76.9z"/>
<path class="st0" d="M256.6,66.8c2.4,0,4.5,0.4,6.5,1.3c1.9,0.9,3.6,2,5,3.4c1.4,1.4,2.5,3,3.2,4.7c0.7,1.7,1.1,3.5,1.1,5.2
	c0,1.5-0.5,3.1-1.4,4.7s-2.3,3-4,4.2c-1.7,1.3-3.8,2.3-6.2,3s-5,1.2-7.9,1.2c-1.5,0-3.1-0.1-4.7-0.4c0.1,1.1,0.4,2,0.9,2.8
	c0.5,0.8,1.2,1.4,2,1.9c0.8,0.5,1.7,0.9,2.7,1.1c1,0.2,2.1,0.4,3.1,0.4c1.2,0,2.4-0.1,3.5-0.3c1.1-0.2,2.2-0.5,3.2-0.8
	c1-0.3,2-0.7,3-1.2c0.9-0.4,1.8-0.9,2.7-1.3c0.2,0,0.4-0.1,0.6-0.1c0.2,0,0.3-0.1,0.5-0.1c0,0.8,0,1.6,0,2.3c0,0.7,0,1.6,0,2.6
	c0,1,0,2.2-0.1,3.4c0.1,0.1,0.1,0.3,0.1,0.4c0,0.1,0,0.2,0,0.3c0,0.3-0.3,0.6-0.8,1c-0.5,0.3-1.3,0.7-2.2,1.1
	c-0.9,0.4-1.9,0.7-3,1.1c-1.1,0.3-2.3,0.7-3.5,1c-1.2,0.3-2.3,0.5-3.4,0.7c-1.1,0.2-2.1,0.2-2.9,0.2c-2.7,0-5.3-0.5-7.9-1.4
	c-2.5-0.9-4.8-2.3-6.7-4c-2-1.7-3.5-3.9-4.7-6.4c-1.2-2.5-1.8-5.3-1.8-8.4c0-3.3,0.6-6.3,1.7-9.2s2.7-5.4,4.7-7.5
	c2-2.1,4.5-3.8,7.3-5C250.1,67.4,253.2,66.8,256.6,66.8z M256.1,76.8c-1,0-2,0.2-2.8,0.7c-0.9,0.4-1.6,1.1-2.4,1.9
	c-0.7,0.8-1.3,1.8-1.9,2.9s-0.9,2.4-1.3,3.8c2.6-0.4,4.7-0.9,6.4-1.4c1.7-0.5,3.1-1,4.1-1.5c1-0.5,1.7-1,2.2-1.5s0.6-1,0.6-1.5
	c0-0.4-0.2-0.9-0.5-1.3c-0.3-0.4-0.8-0.7-1.3-1s-1-0.5-1.6-0.7C257.1,76.9,256.6,76.8,256.1,76.8z"/>
<path class="st0" d="M276.3,90.3c0-3.3,0.6-6.3,1.8-9.2c1.2-2.9,2.9-5.4,5-7.5c2.1-2.1,4.7-3.8,7.6-5c2.9-1.2,6.1-1.8,9.5-1.8
	c2.3,0,4.3,0.2,6,0.6c1.6,0.4,3,0.8,4,1.3c1,0.5,1.8,0.9,2.3,1.3c0.5,0.4,0.7,0.6,0.7,0.6c0,0.1-0.1,0.6-0.2,1.3
	c-0.1,0.7-0.2,1.5-0.4,2.4c-0.1,0.9-0.3,1.8-0.4,2.8c-0.1,1-0.2,1.8-0.2,2.5c0,0.1,0,0.3-0.1,0.4c-0.1,0.1-0.3,0.2-0.6,0.2
	c-0.3,0-0.7-0.1-1.3-0.3c-0.6-0.2-1.3-0.4-2.1-0.7c-0.8-0.3-1.8-0.5-2.9-0.7c-1.1-0.2-2.3-0.3-3.6-0.3c-1.6,0-3.1,0.3-4.5,0.9
	c-1.3,0.6-2.5,1.4-3.4,2.4c-0.9,1-1.7,2.3-2.2,3.7c-0.5,1.4-0.8,3-0.8,4.6c0,1.7,0.3,3.2,0.8,4.4c0.5,1.2,1.3,2.2,2.2,3
	c0.9,0.8,1.9,1.3,3.1,1.7c1.2,0.3,2.4,0.5,3.7,0.5c1.5,0,3-0.2,4.5-0.6c1.5-0.4,3-1,4.3-1.7c0.1,0,0.1,0,0.3,0
	c0.1,0,0.2,0.1,0.3,0.2c0.1,0.1,0.1,0.4,0.1,0.7c0,0.8,0,1.8,0,2.9c0,1.1,0,2.2,0,3.3c0,1,0,1.9-0.1,2.6c0,0.7-0.1,1.1-0.1,1.1
	c-0.9,0.6-1.9,1.1-2.9,1.5c-1,0.4-2.1,0.7-3.2,0.9c-1.1,0.2-2.2,0.4-3.4,0.4c-1.1,0.1-2.2,0.1-3.3,0.1c-2.9,0-5.6-0.5-8.2-1.5
	c-2.5-1-4.7-2.3-6.6-4.1c-1.9-1.8-3.3-3.9-4.4-6.4C276.8,96.1,276.3,93.4,276.3,90.3z"/>
<path class="st0" d="M337.6,79.7c-0.4,2.6-0.7,5.2-1,7.8c-0.3,2.6-0.5,5.1-0.6,7.3c0,1,0.1,1.8,0.2,2.4c0.1,0.7,0.4,1.2,0.7,1.5
	c0.3,0.4,0.6,0.6,1,0.8c0.4,0.2,0.8,0.2,1.3,0.2c0.8,0,1.7-0.1,2.6-0.4s1.9-0.5,2.8-0.9c0.3-0.1,0.6-0.2,0.8-0.3
	c0.2-0.1,0.4-0.1,0.5-0.1c0.2,0,0.4,0.1,0.5,0.3c0.1,0.2,0.2,0.6,0.3,1.2c0.1,0.6,0.2,1.3,0.4,2.3c0.2,0.9,0.5,2.1,0.9,3.6
	c0,0.1,0,0.2,0.1,0.3c0,0.1,0,0.2,0,0.2c0,0.3-0.1,0.6-0.4,0.7c-0.3,0.1-0.7,0.3-1.3,0.5c-1,0.3-2.1,0.7-3.2,1.1
	c-1.1,0.4-2.3,0.7-3.4,1c-1.1,0.3-2.2,0.5-3.2,0.7c-1,0.2-1.9,0.3-2.7,0.3c-4.2,0-7.2-1-9.1-3.1c-1.9-2.1-2.9-5.2-2.9-9.5
	c0-0.7,0-1.5,0.1-2.2c0.1-0.8,0.1-1.6,0.2-2.4c0.2-2.5,0.5-4.9,0.7-7.1c0.2-2.2,0.4-4.4,0.6-6.4h-3.9c-1.3,0-2.3-0.1-2.9-0.2
	c-0.6-0.1-0.9-0.3-0.9-0.7c0-0.1,0.1-0.4,0.4-0.8c0.2-0.4,0.6-1,1-1.6c0.4-0.6,0.8-1.3,1.3-2c0.4-0.7,0.9-1.4,1.3-2
	c0.4-0.6,0.8-1.1,1.1-1.6c0.3-0.4,0.5-0.7,0.6-0.8h2.7c0.2-1.9,0.4-3.5,0.5-4.8c0.1-1.3,0.3-2.4,0.3-3.2c0.1-0.8,0.2-1.5,0.2-2
	s0.2-0.8,0.2-1c0.1-0.2,0.2-0.4,0.3-0.4c0.1-0.1,0.3-0.1,0.5-0.2c1.1-0.2,2.2-0.4,3.3-0.6c1-0.2,2.1-0.4,3.1-0.6
	c1-0.2,2.1-0.4,3.2-0.7c1.1-0.3,2.2-0.6,3.4-0.9c0.1,0,0.1,0,0.1,0c0,0,0.1,0,0.1,0c0.3,0,0.4,0.1,0.4,0.3v0.1
	c-0.1,1.4-0.3,3.3-0.6,5.7c-0.3,2.4-0.6,5.2-0.9,8.3h10c0.2,0,0.4,0.1,0.6,0.2c0.2,0.1,0.3,0.4,0.3,0.7c0,0.1-0.1,0.6-0.4,1.3
	c-0.3,0.8-0.7,1.8-1.3,3l-1.3,3c-0.2,0.4-0.4,0.6-0.5,0.8c-0.2,0.2-0.6,0.3-1.1,0.3H337.6z"/>
<path class="st0" d="M353.8,92.7c0.3-3.4,0.7-6.8,1-10.2c0.3-3.3,0.6-6.8,0.9-10.3c0.1-0.8,0.1-1.4,0.2-1.7c0.1-0.3,0.4-0.5,0.8-0.6
	c2.1-0.4,4.3-0.9,6.7-1.3c2.3-0.5,4.6-1.1,6.7-1.8c0.1,0,0.2,0,0.3,0c0.3,0,0.4,0.1,0.4,0.3l-3.4,36.5c-0.1,0.8-0.2,1.4-0.3,1.7
	c-0.1,0.3-0.4,0.5-0.8,0.6c-2.1,0.6-4.3,1.4-6.4,2.2c-2.2,0.8-4.5,1.6-6.9,2.4c-0.1,0-0.2,0-0.3,0c-0.3,0-0.4-0.1-0.4-0.4
	c0,0,0-0.4,0.1-1c0.1-0.6,0.1-1.5,0.2-2.5c0.1-1,0.2-2.2,0.3-3.4c0.1-1.3,0.2-2.5,0.3-3.8c0.1-1.3,0.2-2.5,0.3-3.7
	C353.6,94.6,353.7,93.6,353.8,92.7z M356.6,62.8c0.1-1.1,0.1-1.9,0.2-2.5c0-0.6,0.1-1,0.1-1.3s0-0.5,0-0.5c0-0.1,0-0.1,0-0.2
	c0,0,0-0.1,0-0.2c0-0.1,0-0.4,0.1-0.7c0-0.4,0.1-0.9,0.1-1.6c0.1-0.7,0.1-1.7,0.2-2.9c0.1-0.8,0.1-1.4,0.2-1.7
	c0.1-0.3,0.4-0.5,0.8-0.6c2.1-0.4,4.3-0.9,6.7-1.3s4.6-1.1,6.7-1.8c0.1,0,0.2,0,0.3,0c0.1,0.1,0.2,0.3,0.3,0.3l0.1,0.1l-0.8,10.3
	c-0.1,0.8-0.2,1.4-0.3,1.7c-0.1,0.3-0.4,0.5-0.8,0.6c-2.1,0.4-4.3,0.8-6.4,1.3c-2.2,0.5-4.5,0.9-6.9,1.4c-0.1,0-0.2,0-0.3,0
	C356.7,63.2,356.6,63.1,356.6,62.8z"/>
<path class="st0" d="M396.3,110.6c-3.5,0-6.6-0.6-9.3-1.7c-2.7-1.2-4.9-2.7-6.7-4.6c-1.8-1.9-3.1-4.1-4-6.6
	c-0.9-2.5-1.3-5.1-1.3-7.7c0-2.7,0.4-5.2,1.3-7.6s2.1-4.6,3.7-6.5c1.6-1.9,3.5-3.5,5.7-4.8c2.2-1.3,4.6-2.2,7.3-2.6
	c0.4,0,0.6-0.1,0.6-0.3c0-0.3,0-0.5-0.1-0.8c-0.1-0.2-0.1-0.4-0.1-0.6c0-0.3,0.1-0.5,0.1-0.6c0.1-0.1,0.2-0.1,0.3-0.1
	c4.8,0,8.8,0.5,12.2,1.6c3.3,1.1,6.1,2.6,8.2,4.4c2.1,1.9,3.6,4.1,4.6,6.6c0.9,2.5,1.4,5.3,1.4,8.2c0,3.7-0.6,7-1.9,10
	c-1.2,2.9-3,5.4-5.1,7.4c-2.2,2-4.7,3.6-7.6,4.6C402.6,110,399.5,110.6,396.3,110.6z M389.3,89.5c0,1.3,0.1,2.7,0.4,4
	c0.3,1.3,0.8,2.5,1.4,3.6c0.7,1.1,1.5,1.9,2.6,2.6c1.1,0.7,2.4,1,4,1c1.1-0.1,2.2-0.3,3-0.8c0.9-0.5,1.6-1.1,2.2-1.8
	c0.6-0.7,1.1-1.6,1.6-2.5c0.4-0.9,0.7-1.9,1-2.9c0.2-1,0.4-2,0.5-2.9c0.1-0.9,0.1-1.8,0.1-2.6c0-1.3-0.2-2.6-0.6-3.8
	c-0.4-1.3-1-2.3-1.7-3.3c-0.7-1-1.7-1.7-2.8-2.3c-1.1-0.6-2.4-0.9-3.8-0.9c-1.5,0-2.8,0.4-3.8,1.3c-1,0.9-1.8,2-2.5,3.3
	c-0.6,1.3-1.1,2.7-1.3,4.1C389.5,87.2,389.3,88.4,389.3,89.5z"/>
<path class="st0" d="M456.1,110c-0.3,0.1-0.6,0.2-1.1,0.4c-0.4,0.2-0.9,0.2-1.3,0.2c-0.4,0-0.7-0.1-0.9-0.3
	c-0.3-0.2-0.4-0.5-0.4-0.9v-0.2c0.1-1.3,0.3-2.5,0.4-3.4c0.1-0.9,0.2-1.8,0.3-2.5c0.1-0.8,0.2-1.5,0.2-2.3c0.1-0.8,0.1-1.6,0.2-2.7
	c0.1-1,0.2-2.2,0.4-3.6c0.1-1.4,0.3-3.1,0.5-5.2c0.1-1.3,0.2-2.6,0.3-3.9c0.1-1.3,0.1-2.5,0.1-3.7c0-0.7-0.1-1.4-0.2-2.1
	c-0.1-0.6-0.3-1.2-0.6-1.6c-0.3-0.5-0.7-0.8-1.2-1.1c-0.5-0.2-1.1-0.4-1.9-0.4c-0.6,0-1.4,0.1-2.4,0.4c-1,0.3-2,0.7-3,1.2
	c-1,0.6-1.9,1.3-2.7,2.3c-0.8,0.9-1.2,2.1-1.3,3.5c-0.1,1.8-0.3,3.4-0.4,4.7c-0.1,1.3-0.2,2.4-0.3,3.3c-0.1,0.9-0.2,1.7-0.2,2.2
	c-0.1,0.6-0.1,1.1-0.1,1.5c0,0.1-0.1,0.4-0.1,0.8s-0.1,1-0.2,1.6c-0.1,0.6-0.1,1.3-0.2,2c-0.1,0.7-0.1,1.4-0.2,2
	c-0.1,0.6-0.1,1.2-0.1,1.6c0,0.4-0.1,0.7-0.1,0.8c0,0.2,0,0.4,0,0.5c0,0.1,0,0.3,0,0.4c0,0.2-0.1,0.4-0.3,0.5
	c-0.2,0.1-0.6,0.3-1.3,0.5l-9.9,3.4c-0.3,0.1-0.6,0.2-1.1,0.4c-0.4,0.1-0.9,0.2-1.3,0.2c-0.4,0-0.7-0.1-0.9-0.3
	c-0.3-0.2-0.4-0.5-0.4-0.9l3.4-38.3c0.1-0.8,0.2-1.4,0.3-1.7c0.1-0.3,0.4-0.5,0.8-0.6c2.3-0.4,4.6-0.9,7-1.4c2.4-0.5,4.7-1.1,7-1.8
	c0.2,0,0.3,0,0.4,0.1c0,0.1,0.1,0.2,0.1,0.3c0,0.1,0,0.1,0,0.2c0,0.1-0.1,0.3-0.1,0.7c-0.1,0.4-0.1,0.9-0.3,1.6
	c-0.1,0.7-0.3,1.7-0.5,3c1.7-1,3.3-1.8,4.9-2.4c1.5-0.6,2.9-1.1,4.3-1.4c1.3-0.3,2.6-0.6,3.8-0.7c1.2-0.1,2.3-0.2,3.3-0.2
	c3.5,0,6.1,1.1,7.7,3.2c1.6,2.1,2.4,5.3,2.4,9.6c0,0.6,0,1.2,0,1.9c0,0.6-0.1,1.3-0.1,2L467,99.6c-0.1,1-0.2,2-0.2,2.9
	c0,0.9,0,1.9,0,3.1c0,0.2,0,0.4,0,0.5c0,0.1,0,0.3,0,0.4c0,0.2-0.1,0.4-0.3,0.5c-0.2,0.1-0.6,0.3-1.3,0.5L456.1,110z"/>
<path class="st0" d="M479.3,108.1c-0.5-0.1-0.8-0.3-1-0.6c-0.2-0.3-0.3-0.6-0.3-0.9c0-0.1,0-0.1,0-0.1c0,0,0-0.1,0-0.1
	c0.2-2.7,0.4-5.5,0.7-8.5c0.2-3,0.5-6,0.8-9c0.3-3.1,0.5-6.1,0.8-9.2c0.3-3,0.5-6,0.8-8.9h0c-0.1,0-0.4,0.1-0.8,0.2
	c-0.5,0.2-1,0.3-1.6,0.5c-0.6,0.2-1.2,0.4-1.8,0.5c-0.6,0.1-1.1,0.2-1.5,0.2c-0.3,0-0.6-0.1-0.7-0.4c-0.1-0.3-0.2-0.5-0.2-0.8
	c0-0.2,0-0.4,0.1-0.6c0.7-1.9,1.4-3.8,2.1-5.5s1.4-3.4,2.2-5.2c1.9-1,3.9-1.9,5.9-2.7c2-0.8,4.1-1.4,6.2-1.9
	c2.1-0.5,4.2-0.9,6.2-1.2c2.1-0.3,4.1-0.4,6-0.4c2.7,0,5.3,0.3,7.7,0.9c2.4,0.6,4.5,1.4,6.3,2.6c1.8,1.2,3.2,2.6,4.2,4.4
	c1,1.8,1.6,3.8,1.6,6.2c0,1-0.2,2-0.7,3c-0.4,0.9-1,1.9-1.7,2.7c-0.7,0.9-1.5,1.7-2.4,2.4c-0.9,0.7-1.7,1.4-2.6,2
	c1.2,0.9,2.3,1.7,3.2,2.4c1,0.7,1.8,1.5,2.5,2.2c0.7,0.8,1.2,1.6,1.5,2.6c0.4,1,0.5,2.1,0.5,3.5c0,2.1-0.4,4.1-1.1,6
	c-0.7,1.9-1.7,3.7-3,5.3c-1.3,1.6-2.8,3.1-4.6,4.4c-1.8,1.3-3.7,2.5-5.7,3.4c-2.1,0.9-4.2,1.7-6.5,2.2c-2.3,0.5-4.6,0.8-6.9,0.8
	c-0.8,0-2-0.1-3.4-0.3c-1.4-0.2-2.9-0.4-4.5-0.6c-1.6-0.2-3.1-0.5-4.6-0.8C481.6,108.6,480.3,108.4,479.3,108.1z M496.5,67
	c-0.5,2.9-0.9,5.9-1.2,9c-0.3,3-0.6,6-0.8,8.8c-0.2,2.9-0.4,5.6-0.6,8.1c-0.2,2.6-0.4,4.9-0.5,6.9c1,0,2.1-0.1,3.2-0.2
	c1.2-0.1,2.3-0.3,3.5-0.6c1.1-0.3,2.3-0.6,3.4-1.1c1.1-0.4,2-1,2.9-1.6c0.8-0.6,1.5-1.4,2-2.3s0.7-1.9,0.7-3.1
	c0-0.7-0.2-1.3-0.6-1.9s-1-1-1.6-1.4c-0.7-0.4-1.4-0.7-2.2-1c-0.8-0.3-1.6-0.5-2.3-0.6c-0.8-0.2-1.5-0.3-2.1-0.4
	c-0.6-0.1-1.1-0.2-1.4-0.2c-0.4,0-0.6-0.2-0.7-0.4c-0.1-0.2-0.1-0.4-0.1-0.7c0-0.3,0.2-0.8,0.6-1.5s0.9-1.5,1.6-2.7l1.6-2.5
	c0.7-0.3,1.4-0.6,2.2-0.9c0.8-0.4,1.5-0.8,2.2-1.3c0.7-0.5,1.2-1,1.7-1.6c0.4-0.6,0.7-1.3,0.7-2c0-2-0.4-3.6-1.3-4.7
	c-0.9-1.1-2.2-1.6-3.8-1.6C501.4,65.7,499.1,66.1,496.5,67z"/>
<path class="st0" d="M568.6,104c-0.1,0.8-0.2,1.4-0.3,1.7s-0.4,0.5-0.8,0.6c-2.1,0.6-4.3,1.2-6.7,1.8c-2.3,0.6-4.6,1.4-6.7,2.4
	c-0.1,0-0.2,0-0.3,0c-0.2,0-0.3,0-0.4-0.1c0-0.1-0.1-0.2-0.1-0.3c0,0,0-0.1,0-0.3c0-0.1,0-0.4,0.1-0.7c0.1-0.3,0.1-0.8,0.2-1.4
	c0.1-0.6,0.2-1.4,0.4-2.4c-2.8,1.8-5.3,3.2-7.4,4c-2.2,0.8-4.1,1.3-5.8,1.3c-4.2,0-7.2-1-9.1-3c-1.9-2-2.9-5-2.9-9
	c0-0.7,0-1.5,0-2.2c0-0.8,0.1-1.5,0.2-2.3c0.3-2.9,0.5-5.5,0.7-7.6s0.4-3.9,0.5-5.4c0.1-1.5,0.2-2.7,0.3-3.6
	c0.1-0.9,0.2-1.7,0.2-2.3c0.1-0.6,0.1-1.1,0.1-1.6c0-0.4,0.1-0.8,0.1-1.2c0.1-0.8,0.2-1.4,0.3-1.7c0.1-0.3,0.4-0.5,0.8-0.6
	c1.2-0.2,2.3-0.4,3.4-0.6c1.1-0.2,2.1-0.4,3.1-0.6c1-0.2,2.1-0.4,3.2-0.7c1.1-0.3,2.2-0.6,3.4-0.9c0.1,0,0.1,0,0.1,0
	c0.1,0,0.1,0,0.1,0c0.3,0,0.4,0.1,0.4,0.3v0.1c-0.1,0.9-0.2,1.6-0.3,2.4s-0.1,1.5-0.2,2.3c-0.1,0.8-0.2,1.6-0.2,2.5
	c-0.1,0.9-0.2,1.9-0.3,3.1s-0.3,2.6-0.4,4.1c-0.2,1.5-0.4,3.3-0.6,5.4c-0.1,1.5-0.3,3-0.4,4.5s-0.2,2.9-0.2,4.1
	c0,0.7,0.1,1.3,0.1,1.9c0.1,0.6,0.3,1.1,0.5,1.5c0.3,0.4,0.6,0.7,1,1c0.4,0.2,1,0.3,1.6,0.3c0.5,0,1.2-0.1,2.1-0.4s1.8-0.7,2.7-1.2
	c0.9-0.6,1.7-1.4,2.4-2.3c0.7-1,1.1-2.2,1.2-3.7c0.2-2.5,0.3-4.5,0.5-6.2c0.1-1.7,0.3-3.1,0.4-4.2c0.1-1.1,0.2-2.1,0.3-2.9
	s0.1-1.5,0.2-2.2c0.1-0.7,0.1-1.5,0.2-2.3c0.1-0.8,0.1-1.8,0.1-3.1c0.1-0.8,0.2-1.4,0.3-1.7c0.1-0.3,0.4-0.5,0.8-0.6
	c2.3-0.4,4.6-0.9,7-1.4c2.4-0.5,4.7-1.1,7-1.8c0.2,0,0.3,0,0.4,0.1c0,0.1,0.1,0.2,0.1,0.3L568.6,104z"/>
<path class="st0" d="M618.6,104.8c0,0.1,0,0.1,0,0.2c0,0.1,0,0.1,0,0.2c0,0.1,0,0.2,0,0.3c0,0.1,0,0.1,0,0.2c0,0.2-0.1,0.4-0.2,0.5
	c-0.2,0.1-0.6,0.3-1.3,0.5l-10,3.3c-0.3,0.1-0.6,0.2-1.1,0.4c-0.4,0.1-0.9,0.2-1.3,0.2c-0.4,0-0.7-0.1-0.9-0.3
	c-0.3-0.2-0.4-0.5-0.4-1c0-0.4,0-0.8,0-1.1c0-0.3,0-0.5,0-0.8c0-0.2,0-0.5,0.1-0.8c0-0.3,0.1-0.6,0.1-1.1c-1.9,1.5-3.8,2.7-5.8,3.6
	c-2,0.9-4.1,1.3-6.3,1.3c-2.4,0-4.5-0.6-6.4-1.7c-1.9-1.1-3.4-2.7-4.7-4.6c-1.3-1.9-2.2-4.1-2.9-6.6c-0.7-2.5-1-5-1-7.7
	c0-3.5,0.6-6.6,1.7-9.5c1.1-2.9,2.7-5.3,4.6-7.3c1.9-2,4.2-3.6,6.8-4.7c2.6-1.1,5.4-1.7,8.3-1.7c1.6,0,3.1,0.4,4.5,1.2
	c1.4,0.8,2.8,1.9,4.1,3.2c0.1-1.2,0.2-2.6,0.3-4c0.1-1.4,0.2-2.9,0.3-4.4s0.2-3,0.3-4.4c0.1-1.5,0.2-2.8,0.3-4
	c0-0.2,0.1-0.4,0.2-0.5c0.2-0.1,0.6-0.3,1.3-0.5l10.5-2.5c0.3-0.1,0.6-0.2,1.1-0.3c0.4-0.2,0.9-0.3,1.3-0.3c0.3,0,0.6,0.1,0.9,0.2
	c0.3,0.1,0.4,0.4,0.4,0.9c0,0,0,0.2,0,0.3c0,0.2,0,0.3,0,0.3L618.6,104.8z M605.5,87.3c0.1-0.8,0.2-1.6,0.2-2.5
	c0.1-0.9,0.2-1.8,0.3-2.7c-0.6-1.5-1.4-2.7-2.4-3.7c-1-0.9-2.4-1.4-3.9-1.4c-1.5,0-2.9,0.4-3.9,1.3c-1.1,0.9-1.9,2-2.6,3.3
	c-0.7,1.3-1.1,2.7-1.4,4.1c-0.3,1.4-0.4,2.7-0.4,3.8c0,1.3,0.1,2.7,0.2,4c0.2,1.3,0.4,2.5,0.8,3.6c0.4,1.1,0.8,1.9,1.4,2.6
	c0.6,0.7,1.3,1,2.2,1c2.2-0.1,4-0.6,5.4-1.5c1.4-0.9,2.5-2,3.3-3.4L605.5,87.3z"/>
<path class="st0" d="M668.5,104.8c0,0.1,0,0.1,0,0.2c0,0.1,0,0.1,0,0.2c0,0.1,0,0.2,0,0.3c0,0.1,0,0.1,0,0.2c0,0.2-0.1,0.4-0.2,0.5
	c-0.2,0.1-0.6,0.3-1.3,0.5l-10,3.3c-0.3,0.1-0.6,0.2-1.1,0.4c-0.4,0.1-0.9,0.2-1.3,0.2c-0.4,0-0.7-0.1-0.9-0.3
	c-0.3-0.2-0.4-0.5-0.4-1c0-0.4,0-0.8,0-1.1c0-0.3,0-0.5,0-0.8c0-0.2,0-0.5,0.1-0.8c0-0.3,0.1-0.6,0.1-1.1c-1.9,1.5-3.8,2.7-5.8,3.6
	c-2,0.9-4.1,1.3-6.3,1.3c-2.4,0-4.5-0.6-6.4-1.7c-1.9-1.1-3.4-2.7-4.7-4.6c-1.3-1.9-2.2-4.1-2.9-6.6c-0.7-2.5-1-5-1-7.7
	c0-3.5,0.6-6.6,1.7-9.5c1.1-2.9,2.7-5.3,4.6-7.3c1.9-2,4.2-3.6,6.8-4.7c2.6-1.1,5.4-1.7,8.3-1.7c1.6,0,3.1,0.4,4.5,1.2
	c1.4,0.8,2.8,1.9,4.1,3.2c0.1-1.2,0.2-2.6,0.3-4c0.1-1.4,0.2-2.9,0.3-4.4s0.2-3,0.3-4.4c0.1-1.5,0.2-2.8,0.3-4
	c0-0.2,0.1-0.4,0.2-0.5c0.2-0.1,0.6-0.3,1.3-0.5l10.5-2.5c0.3-0.1,0.6-0.2,1.1-0.3c0.4-0.2,0.9-0.3,1.3-0.3c0.3,0,0.6,0.1,0.9,0.2
	c0.3,0.1,0.4,0.4,0.4,0.9c0,0,0,0.2,0,0.3c0,0.2,0,0.3,0,0.3L668.5,104.8z M655.5,87.3c0.1-0.8,0.2-1.6,0.2-2.5
	c0.1-0.9,0.2-1.8,0.3-2.7c-0.6-1.5-1.4-2.7-2.4-3.7c-1-0.9-2.4-1.4-3.9-1.4c-1.5,0-2.9,0.4-3.9,1.3c-1.1,0.9-1.9,2-2.6,3.3
	c-0.7,1.3-1.1,2.7-1.4,4.1c-0.3,1.4-0.4,2.7-0.4,3.8c0,1.3,0.1,2.7,0.2,4c0.2,1.3,0.4,2.5,0.8,3.6c0.4,1.1,0.8,1.9,1.4,2.6
	c0.6,0.7,1.3,1,2.2,1c2.2-0.1,4-0.6,5.4-1.5c1.4-0.9,2.5-2,3.3-3.4L655.5,87.3z"/>
<path class="st0" d="M692.5,125.7c-0.1,0.1-0.1,0.2-0.2,0.2c-0.1,0.1-0.2,0.1-0.3,0.1c-0.1,0-0.3,0-0.3,0c-0.9-0.3-1.7-0.6-2.5-0.8
	c-0.8-0.2-1.6-0.4-2.4-0.6c-0.8-0.2-1.6-0.4-2.4-0.5c-0.8-0.2-1.7-0.3-2.6-0.5c-0.2-0.1-0.4-0.1-0.6-0.2c-0.1-0.1-0.2-0.3-0.2-0.6
	c0-0.1,0-0.3,0.1-0.5c0.1-0.3,0.3-0.9,0.7-1.8s0.9-2.2,1.6-3.9c0.7-1.7,1.7-4,3-6.8c-0.4-1.3-0.8-2.8-1.3-4.5
	c-0.5-1.7-1-3.7-1.5-5.7c-0.5-2.1-1.1-4.3-1.7-6.6s-1.2-4.6-1.7-7c-0.6-2.4-1.2-4.7-1.8-7c-0.6-2.3-1.2-4.5-1.7-6.6
	c-0.2-0.4-0.3-0.7-0.3-1c0-0.3,0-0.5,0-0.7c0-0.3,0.2-0.6,0.6-0.7c1.9-0.4,4-0.9,6.1-1.3c2.1-0.5,4.1-1.1,6-1.8c0.1,0,0.2,0,0.3,0
	c0.3,0,0.5,0.1,0.5,0.4l4.6,25.2c0.1-0.3,0.3-0.8,0.6-1.6c0.3-0.8,0.6-1.7,1-2.8c0.4-1.1,0.8-2.3,1.3-3.6c0.5-1.3,1-2.7,1.5-4
	c0.5-1.4,1-2.7,1.5-4.1c0.5-1.4,0.9-2.6,1.4-3.8c0.4-1.2,0.8-2.2,1.1-3.1c0.3-0.9,0.6-1.6,0.7-2c0.1-0.3,0.3-0.4,0.6-0.4
	c0.1,0,0.1,0,0.1,0c0,0,0.1,0,0.1,0c1.9,0.7,3.8,1.3,5.8,1.8c2,0.5,3.9,0.9,5.9,1.3c0.5,0.1,0.7,0.4,0.7,0.8c0,0.3-0.1,0.8-0.4,1.5
	l-15.4,34.9L692.5,125.7z"/>
<path class="st1" d="M36.8,77.7c3.4,6.1,7,12.5,7.4,13.2c0.7,1.2,1.3,2.2,1.8,3c0.1,0.2,0.2,0.3,0.4,0.4c0.2,0.1,0.3,0.2,0.5,0.2
	c0.2,0,0.4,0,0.6-0.1c0.1,0,0.2-0.1,0.2-0.1c0.1,0,0.1-0.1,0.2-0.1c1.5-1,2.9-1.8,4.3-2.5c1.4-0.8,2.8-1.4,4.2-2.1
	c0.2-0.1,0.5-0.2,0.6-0.4c0.2-0.2,0.4-0.4,0.6-0.7c0.1-0.2,0.2-0.5,0.3-0.8c0.1-0.3,0.1-0.6,0.2-1l10.6-54.5c0.1-0.7,0.1-1.2,0-1.6
	c-0.2-0.7-0.8-1.2-1.6-1.2c-0.8,0-1.9,0.1-3,0.2c-1.2,0.1-2.5,0.2-3.3,0.3c-0.9,0-2.4-0.3-3.7-0.5c-0.8-0.2-1.6-0.3-2.2-0.4
	c-0.1,0-0.1,0-0.2,0c-0.1,0-0.3,0-0.3,0c-0.6,0.1-1,0.6-1,1.1c0,0,0,0,0,0l-0.2,1.7c-0.1,0.4-1.4,13.7-2.7,26.5
	c-0.7,6.5-1.3,12.8-1.7,16.4l-7.3-15.5c-0.2-0.5-0.7-0.9-1.5-0.7c-0.2,0.1-0.4,0.1-0.5,0.2c-1.3,0.9-2.7,1.7-4.1,2.5l-4.4,2.2
	c-0.6,0.3-0.9,1-0.8,1.6c0.1,0.3,0.3,0.8,0.7,1.4C31.1,67.3,33.9,72.3,36.8,77.7z"/>
<path class="st1" d="M84.1,71.6c2.3,4.6,4.2,8.4,4.4,8.8c0.6,1.3,1.2,2.3,1.6,3.1c0.1,0.2,0.2,0.3,0.4,0.5c0.2,0.1,0.4,0.2,0.6,0.2
	c0.2,0,0.3,0,0.5,0c0.1,0,0.2,0,0.2-0.1c0.1,0,0.1,0,0.2-0.1c1.5-0.8,3-1.6,4.4-2.2c1.4-0.6,2.9-1.2,4.3-1.8
	c0.3-0.1,0.5-0.2,0.6-0.3c0.2-0.2,0.5-0.4,0.6-0.7c0.1-0.2,0.2-0.5,0.3-0.8c0.1-0.3,0.2-0.6,0.3-1l14.4-53.6
	c0.2-0.7,0.2-1.2,0.2-1.6c-0.1-0.8-0.7-1.2-1.5-1.3c-1.7-0.1-10.7-1-12.4-1.3c-0.1,0-0.3,0-0.3,0c-0.6,0.1-1,0.5-1.1,1.1
	c0,0,0,0,0,0l-0.3,1.7c-0.1,0.4-2.6,14.9-4.8,27.6c-1.1,6.2-2.1,11.9-2.6,15.1l-8.3-19.1c-0.1-0.5-0.7-1-1.5-0.9
	c-0.2,0-0.4,0.1-0.6,0.2c-1.3,0.8-2.8,1.5-4.3,2.2l-4.6,1.9c-0.7,0.3-1,0.9-0.9,1.6c0.1,0.4,0.2,0.8,0.6,1.5
	C75.1,53.4,80.2,63.8,84.1,71.6z"/>
<path class="st1" d="M142.9,61.5c0-0.7-0.3-1.4-0.8-1.8c-0.5-0.5-1.1-0.7-1.8-0.7l-9.5,0.1c-1.3,0-2.4,1.1-2.4,2.5
	c0.1,20.8-11.1,38.4-30.5,48.3c-22.7,11.5-39.1,9.9-48.9,6.5c-10.5-3.6-18.9-11.1-23.4-21c-0.3-0.6-0.8-1.1-1.4-1.3
	c-0.6-0.2-1.2-0.2-1.8,0.1l-8.6,4c-0.6,0.3-1.1,0.8-1.3,1.4c-0.2,0.6-0.2,1.4,0.1,2c0,0,0,0,0,0c3.7,7.9,15.2,22.9,34.2,29.6
	c4.8,1.7,9.7,2.7,14.8,3.1c12.3,1,25.4-1.9,39.1-8.5C125.9,113.7,142.8,87.8,142.9,61.5z"/>
</svg>
